<svg xmlns="http://www.w3.org/2000/svg" version="1.1" xmlns:xlink="http://www.w3.org/1999/xlink" xmlns:svgjs="http://svgjs.dev/svgjs" width="1000" height="280" viewBox="0 0 1000 280"><g transform="matrix(1,0,0,1,-0.6060606060606233,-0.4982130398494462)"><svg viewBox="0 0 396 111" data-background-color="#ffffff" preserveAspectRatio="xMidYMid meet" height="280" width="1000" xmlns="http://www.w3.org/2000/svg" xmlns:xlink="http://www.w3.org/1999/xlink"><g id="tight-bounds" transform="matrix(1,0,0,1,0.2400000000000091,0.19750588365459976)"><svg viewBox="0 0 395.52 110.6049882326908" height="110.6049882326908" width="395.52"><g><svg viewBox="0 0 588.0585565593199 164.44733446697188" height="110.6049882326908" width="395.52"><g transform="matrix(1,0,0,1,0,22.727525964682805)"><svg viewBox="0 0 395.52 118.99228253760627" height="118.99228253760627" width="395.52"><g id="textblocktransform"><svg viewBox="0 0 395.52 118.99228253760627" height="118.99228253760627" width="395.52" id="textblock"><g><svg viewBox="0 0 395.52 118.99228253760627" height="118.99228253760627" width="395.52"><g transform="matrix(1,0,0,1,0,0)"><svg width="395.52" viewBox="3.74 -33.08 111.98 33.69" height="118.99228253760627" data-palette-color="#ba3b0a"><path d="M3.74 0L3.74-32.64Q7.13-33.08 10.69-33.08L10.69-33.08Q17.33-33.08 20.79-29.97 24.24-26.86 24.24-20.65L24.24-20.65Q24.24-15.11 20.46-11.89L20.46-11.89Q16.92-8.86 11.35-8.86L11.35-8.86Q10.72-8.86 9.96-8.94L9.96-8.94 9.96 0 3.74 0ZM11.43-27.2L11.43-27.2Q10.69-27.2 9.96-27.15L9.96-27.15 9.96-14.31Q10.74-14.21 11.87-14.21 12.99-14.21 14.21-14.69 15.43-15.16 16.26-16.02L16.26-16.02Q17.99-17.8 17.99-20.7L17.99-20.7Q17.99-27.2 11.43-27.2ZM35.84-20.58L35.84 0.15Q34.67 0 31.32 0L31.32 0 29.37 0 29.37-32.57Q30.93-32.47 32.81-32.47 34.69-32.47 35.47-32.67L35.47-32.67 43.67-18.73 51.56-32.67Q52.34-32.47 54.54-32.47 56.74-32.47 58.3-32.57L58.3-32.57 58.3 0 56.35 0Q53 0 51.83 0.15L51.83 0.15 51.83-21.73 43.85-7.45 35.84-20.58ZM83.86-20.07L83.93-14.04Q82.76-14.16 80.9-14.16L80.9-14.16 73.51-14.16 73.51 0 66.82 0 66.82-32.64Q67.48-32.59 68.33-32.57L68.33-32.57 70.14-32.52Q71.99-32.47 73.99-32.47L73.99-32.47Q80-32.47 85.47-32.67L85.47-32.67Q85.2-30.52 85.2-26.93L85.2-26.93Q85.2-26.54 85.25-26.34L85.25-26.34 85.2-26.27Q83.91-26.64 81.59-26.64L81.59-26.64 73.51-26.64 73.51-19.92 80.63-19.92Q83.32-19.92 83.86-20.07L83.86-20.07ZM112.28-2.38Q110.49-0.95 107.63-0.17 104.78 0.61 100.62 0.61 96.45 0.61 91.76-0.15L91.76-0.15 91.76-32.32Q96.5-33.08 99.98-33.08 103.46-33.08 105.69-32.42 107.93-31.76 109.34-30.64L109.34-30.64Q112.13-28.47 112.13-25.01 112.13-21.56 109.61-19.29L109.61-19.29Q112.59-18.36 114.23-15.77L114.23-15.77Q115.72-13.45 115.72-10.63 115.72-7.81 114.9-5.81 114.08-3.81 112.28-2.38ZM98.23-27.81L98.23-20.19Q99.26-20.02 100.8-20.02 102.34-20.02 103.33-20.42 104.31-20.83 104.85-21.44L104.85-21.44Q105.73-22.44 105.73-24.22L105.73-24.22Q105.73-27.95 101.34-27.95L101.34-27.95Q99.48-27.95 98.23-27.81L98.23-27.81ZM101.85-14.97L101.85-14.97Q99.8-14.97 98.23-14.7L98.23-14.7 98.23-5.1Q99.94-4.66 101.82-4.66 103.7-4.66 105.13-5.11 106.56-5.57 107.54-6.35L107.54-6.35Q109.51-7.96 109.51-10.45L109.51-10.45Q109.51-14.97 101.85-14.97Z" opacity="1" transform="matrix(1,0,0,1,0,0)" fill="#ba3b0a" class="undefined-text-0" data-fill-palette-color="primary" id="text-0"></path></svg></g></svg></g></svg></g></svg></g><g transform="matrix(1,0,0,1,423.61122209234793,0)"><svg viewBox="0 0 164.44733446697188 164.44733446697188" height="164.44733446697188" width="164.44733446697188"><g data-palette-color="#083c25"><rect width="44.948938087638986" height="164.44733446697188" fill="#083c25" stroke="transparent" data-fill-palette-color="accent" x="0" fill-opacity="1"></rect><rect width="44.948938087638986" height="164.44733446697188" fill="#083c25" stroke="transparent" data-fill-palette-color="accent" x="54.8157781556573" fill-opacity="0.75"></rect><rect width="44.948938087638986" height="164.44733446697188" fill="#083c25" stroke="transparent" data-fill-palette-color="accent" x="109.6315563113146" fill-opacity="0.5"></rect></g></svg></g></svg></g><defs></defs></svg><rect width="395.52" height="110.6049882326908" fill="none" stroke="none" visibility="hidden"></rect></g></svg></g></svg>